<svg xmlns="http://www.w3.org/2000/svg" xmlns:xlink="http://www.w3.org/1999/xlink" width="1209" zoomAndPan="magnify" viewBox="0 0 906.75 283.499996" height="377" preserveAspectRatio="xMidYMid meet" version="1.0"><defs><g/></defs><g fill="#ffffff" fill-opacity="1"><g transform="translate(123.648431, 212.841686)"><g><path d="M 9.179688 0 L 27.082031 0 L 27.082031 -108.09375 L 44.980469 0 L 54.160156 0 L 72.0625 -108.09375 L 72.0625 0 L 90.421875 0 L 90.421875 -153.074219 L 64.71875 -153.074219 L 49.570312 -76.882812 L 34.425781 -153.074219 L 9.179688 -153.074219 Z M 9.179688 0 "/></g></g></g><g fill="#ffffff" fill-opacity="1"><g transform="translate(235.414485, 212.841686)"><g><path d="M 9.179688 0 L 62.652344 0 L 62.652344 -19.964844 L 30.523438 -19.964844 L 30.523438 -70.226562 L 51.636719 -70.226562 L 51.636719 -90.191406 L 30.523438 -90.191406 L 30.523438 -133.109375 L 60.816406 -133.109375 L 60.816406 -153.074219 L 9.179688 -153.074219 Z M 9.179688 0 "/></g></g></g><g fill="#ffffff" fill-opacity="1"><g transform="translate(315.050755, 212.841686)"><g><path d="M 9.179688 0 L 31.898438 0 C 46.816406 0 53.703125 -2.066406 60.128906 -8.492188 C 66.554688 -14.6875 69.769531 -23.867188 69.769531 -35.34375 L 69.769531 -117.734375 C 69.769531 -129.207031 66.554688 -138.386719 60.128906 -144.585938 C 53.703125 -151.011719 46.816406 -153.074219 31.898438 -153.074219 L 9.179688 -153.074219 Z M 30.523438 -19.964844 L 30.523438 -133.109375 L 33.277344 -133.109375 C 44.753906 -133.109375 48.425781 -129.4375 48.425781 -117.734375 L 48.425781 -35.34375 C 48.425781 -23.410156 44.980469 -19.964844 33.277344 -19.964844 Z M 30.523438 -19.964844 "/></g></g></g><g fill="#ffffff" fill-opacity="1"><g transform="translate(405.932462, 212.841686)"><g><path d="M 9.179688 0 L 30.523438 0 L 30.523438 -153.074219 L 9.179688 -153.074219 Z M 9.179688 0 "/></g></g></g><g fill="#ffffff" fill-opacity="1"><g transform="translate(457.799434, 212.841686)"><g><path d="M 21.574219 0 L 42.917969 0 L 42.917969 -133.109375 L 63.800781 -133.109375 L 63.800781 -153.074219 L 1.605469 -153.074219 L 1.605469 -133.109375 L 21.574219 -133.109375 Z M 21.574219 0 "/></g></g></g><g fill="#ffffff" fill-opacity="1"><g transform="translate(535.370252, 212.841686)"><g><path d="M 9.179688 0 L 62.652344 0 L 62.652344 -19.964844 L 30.523438 -19.964844 L 30.523438 -70.226562 L 51.636719 -70.226562 L 51.636719 -90.191406 L 30.523438 -90.191406 L 30.523438 -133.109375 L 60.816406 -133.109375 L 60.816406 -153.074219 L 9.179688 -153.074219 Z M 9.179688 0 "/></g></g></g><g fill="#ffffff" fill-opacity="1"><g transform="translate(615.006523, 212.841686)"><g><path d="M 8.949219 -34.425781 C 8.949219 -10.097656 19.046875 2.296875 39.015625 2.296875 C 59.898438 2.296875 69.996094 -11.015625 69.996094 -38.328125 C 69.996094 -42.457031 69.769531 -46.128906 69.539062 -54.390625 L 48.195312 -54.390625 C 48.425781 -47.277344 48.652344 -43.144531 48.652344 -38.554688 C 48.652344 -22.261719 46.589844 -17.671875 39.015625 -17.671875 C 32.128906 -17.671875 30.292969 -21.113281 30.292969 -34.425781 L 30.292969 -118.652344 C 30.292969 -131.960938 32.128906 -135.402344 39.015625 -135.402344 C 46.589844 -135.402344 48.652344 -130.8125 48.652344 -113.832031 C 48.652344 -110.160156 48.652344 -108.09375 48.195312 -103.273438 L 69.539062 -103.273438 C 69.996094 -109.242188 69.996094 -111.765625 69.996094 -115.4375 C 69.996094 -142.058594 59.667969 -155.371094 39.015625 -155.371094 C 19.046875 -155.371094 8.949219 -142.976562 8.949219 -118.652344 Z M 8.949219 -34.425781 "/></g></g></g><g fill="#ffffff" fill-opacity="1"><g transform="translate(705.199749, 212.841686)"><g><path d="M 9.179688 0 L 30.523438 0 L 30.523438 -70.226562 L 47.964844 -70.226562 L 47.964844 0 L 69.308594 0 L 69.308594 -153.074219 L 47.964844 -153.074219 L 47.964844 -90.191406 L 30.523438 -90.191406 L 30.523438 -153.074219 L 9.179688 -153.074219 Z M 9.179688 0 "/></g></g></g></svg>