<svg xmlns="http://www.w3.org/2000/svg" xmlns:xlink="http://www.w3.org/1999/xlink" width="1209" zoomAndPan="magnify" viewBox="0 0 906.75 737.249977" height="982" preserveAspectRatio="xMidYMid meet" version="1.0"><defs><g/><clipPath id="e5770c771d"><path d="M 101.332031 15.996094 L 806.003906 15.996094 L 806.003906 720.667969 L 101.332031 720.667969 Z M 101.332031 15.996094 " clip-rule="nonzero"/></clipPath><clipPath id="ff7639f63a"><path d="M 667.289062 481.539062 L 745.542969 481.539062 L 745.542969 559.796875 L 667.289062 559.796875 Z M 667.289062 481.539062 " clip-rule="nonzero"/></clipPath><clipPath id="d505fb9a1d"><path d="M 706.414062 481.539062 C 684.804688 481.539062 667.289062 499.058594 667.289062 520.667969 C 667.289062 542.277344 684.804688 559.796875 706.414062 559.796875 C 728.023438 559.796875 745.542969 542.277344 745.542969 520.667969 C 745.542969 499.058594 728.023438 481.539062 706.414062 481.539062 " clip-rule="nonzero"/></clipPath></defs><g clip-path="url(#e5770c771d)"><path fill="#1b1d34" d="M 275.839844 15.996094 L 631.496094 15.996094 C 634.351562 15.996094 637.207031 16.066406 640.058594 16.207031 C 642.910156 16.347656 645.757812 16.558594 648.601562 16.835938 C 651.445312 17.117188 654.277344 17.464844 657.101562 17.886719 C 659.925781 18.304688 662.738281 18.792969 665.542969 19.351562 C 668.34375 19.90625 671.128906 20.53125 673.898438 21.226562 C 676.667969 21.921875 679.421875 22.683594 682.152344 23.511719 C 684.886719 24.339844 687.597656 25.234375 690.285156 26.199219 C 692.976562 27.160156 695.640625 28.1875 698.277344 29.28125 C 700.917969 30.375 703.527344 31.53125 706.109375 32.75 C 708.691406 33.972656 711.238281 35.257812 713.757812 36.601562 C 716.277344 37.949219 718.761719 39.355469 721.210938 40.824219 C 723.660156 42.292969 726.074219 43.820312 728.449219 45.40625 C 730.820312 46.992188 733.15625 48.636719 735.449219 50.339844 C 737.746094 52.039062 739.996094 53.796875 742.203125 55.609375 C 744.410156 57.421875 746.574219 59.285156 748.6875 61.203125 C 750.804688 63.121094 752.871094 65.089844 754.890625 67.109375 C 756.910156 69.128906 758.878906 71.195312 760.796875 73.3125 C 762.714844 75.429688 764.582031 77.589844 766.390625 79.796875 C 768.203125 82.003906 769.960938 84.257812 771.660156 86.550781 C 773.363281 88.84375 775.007812 91.179688 776.59375 93.554688 C 778.179688 95.929688 779.707031 98.339844 781.175781 100.789062 C 782.644531 103.238281 784.050781 105.722656 785.398438 108.242188 C 786.746094 110.761719 788.027344 113.3125 789.25 115.894531 C 790.46875 118.472656 791.628906 121.085938 792.71875 123.722656 C 793.8125 126.363281 794.839844 129.027344 795.804688 131.714844 C 796.765625 134.402344 797.660156 137.113281 798.488281 139.847656 C 799.320312 142.582031 800.082031 145.332031 800.773438 148.101562 C 801.46875 150.871094 802.09375 153.660156 802.652344 156.460938 C 803.207031 159.261719 803.695312 162.074219 804.113281 164.898438 C 804.535156 167.722656 804.882812 170.558594 805.164062 173.398438 C 805.445312 176.242188 805.652344 179.089844 805.792969 181.941406 C 805.933594 184.792969 806.003906 187.648438 806.003906 190.503906 L 806.003906 546.160156 C 806.003906 549.015625 805.933594 551.871094 805.792969 554.722656 C 805.652344 557.574219 805.445312 560.421875 805.164062 563.265625 C 804.882812 566.109375 804.535156 568.941406 804.113281 571.765625 C 803.695312 574.589844 803.207031 577.40625 802.652344 580.207031 C 802.09375 583.007812 801.46875 585.792969 800.773438 588.5625 C 800.082031 591.332031 799.320312 594.085938 798.488281 596.816406 C 797.660156 599.550781 796.765625 602.261719 795.804688 604.949219 C 794.839844 607.640625 793.8125 610.304688 792.71875 612.941406 C 791.628906 615.582031 790.46875 618.191406 789.25 620.773438 C 788.027344 623.355469 786.746094 625.90625 785.398438 628.421875 C 784.050781 630.941406 782.644531 633.425781 781.175781 635.875 C 779.707031 638.324219 778.179688 640.738281 776.59375 643.113281 C 775.007812 645.488281 773.363281 647.820312 771.664062 650.113281 C 769.960938 652.410156 768.203125 654.660156 766.390625 656.867188 C 764.582031 659.074219 762.714844 661.238281 760.796875 663.351562 C 758.878906 665.46875 756.910156 667.535156 754.890625 669.554688 C 752.871094 671.574219 750.804688 673.542969 748.6875 675.460938 C 746.574219 677.378906 744.410156 679.246094 742.203125 681.058594 C 739.996094 682.867188 737.746094 684.625 735.449219 686.328125 C 733.15625 688.027344 730.820312 689.671875 728.449219 691.257812 C 726.074219 692.84375 723.660156 694.371094 721.210938 695.839844 C 718.761719 697.308594 716.277344 698.714844 713.757812 700.0625 C 711.238281 701.410156 708.691406 702.691406 706.109375 703.914062 C 703.527344 705.132812 700.917969 706.292969 698.277344 707.382812 C 695.640625 708.476562 692.976562 709.503906 690.285156 710.46875 C 687.597656 711.429688 684.886719 712.324219 682.152344 713.152344 C 679.421875 713.984375 676.667969 714.746094 673.898438 715.4375 C 671.128906 716.132812 668.34375 716.757812 665.542969 717.316406 C 662.738281 717.871094 659.925781 718.359375 657.101562 718.78125 C 654.277344 719.199219 651.445312 719.546875 648.601562 719.828125 C 645.757812 720.109375 642.910156 720.316406 640.058594 720.457031 C 637.207031 720.597656 634.351562 720.667969 631.496094 720.667969 L 275.839844 720.667969 C 272.984375 720.667969 270.128906 720.597656 267.277344 720.457031 C 264.425781 720.316406 261.578125 720.109375 258.734375 719.828125 C 255.894531 719.546875 253.058594 719.199219 250.234375 718.78125 C 247.410156 718.359375 244.597656 717.871094 241.796875 717.316406 C 238.996094 716.757812 236.207031 716.132812 233.4375 715.4375 C 230.667969 714.746094 227.917969 713.984375 225.183594 713.152344 C 222.449219 712.324219 219.738281 711.429688 217.050781 710.46875 C 214.359375 709.503906 211.699219 708.476562 209.058594 707.382812 C 206.421875 706.292969 203.808594 705.132812 201.226562 703.914062 C 198.648438 702.691406 196.097656 701.410156 193.578125 700.0625 C 191.058594 698.714844 188.574219 697.308594 186.125 695.839844 C 183.675781 694.371094 181.261719 692.84375 178.890625 691.257812 C 176.515625 689.671875 174.179688 688.027344 171.886719 686.328125 C 169.59375 684.625 167.339844 682.867188 165.132812 681.058594 C 162.925781 679.246094 160.765625 677.378906 158.648438 675.460938 C 156.53125 673.542969 154.464844 671.574219 152.445312 669.554688 C 150.425781 667.535156 148.457031 665.46875 146.539062 663.351562 C 144.621094 661.238281 142.753906 659.074219 140.945312 656.867188 C 139.132812 654.660156 137.375 652.410156 135.675781 650.113281 C 133.972656 647.820312 132.328125 645.488281 130.742188 643.113281 C 129.15625 640.738281 127.628906 638.324219 126.160156 635.875 C 124.691406 633.425781 123.285156 630.941406 121.9375 628.421875 C 120.59375 625.90625 119.308594 623.355469 118.085938 620.773438 C 116.867188 618.191406 115.710938 615.582031 114.617188 612.941406 C 113.523438 610.304688 112.496094 607.640625 111.535156 604.949219 C 110.570312 602.261719 109.675781 599.550781 108.847656 596.816406 C 108.019531 594.085938 107.257812 591.332031 106.5625 588.5625 C 105.867188 585.792969 105.242188 583.007812 104.6875 580.207031 C 104.128906 577.40625 103.640625 574.589844 103.222656 571.765625 C 102.800781 568.941406 102.453125 566.109375 102.171875 563.265625 C 101.894531 560.421875 101.683594 557.574219 101.542969 554.722656 C 101.402344 551.871094 101.332031 549.015625 101.332031 546.160156 L 101.332031 190.503906 C 101.332031 187.648438 101.402344 184.792969 101.542969 181.941406 C 101.683594 179.089844 101.894531 176.242188 102.171875 173.398438 C 102.453125 170.558594 102.800781 167.722656 103.222656 164.898438 C 103.640625 162.074219 104.128906 159.261719 104.6875 156.460938 C 105.242188 153.660156 105.867188 150.871094 106.5625 148.101562 C 107.257812 145.332031 108.019531 142.582031 108.847656 139.847656 C 109.675781 137.113281 110.570312 134.402344 111.535156 131.714844 C 112.496094 129.027344 113.523438 126.363281 114.617188 123.722656 C 115.710938 121.085938 116.867188 118.472656 118.085938 115.894531 C 119.308594 113.3125 120.59375 110.761719 121.9375 108.242188 C 123.285156 105.722656 124.691406 103.238281 126.160156 100.789062 C 127.628906 98.339844 129.15625 95.929688 130.742188 93.554688 C 132.328125 91.179688 133.972656 88.84375 135.675781 86.550781 C 137.375 84.257812 139.132812 82.003906 140.945312 79.796875 C 142.753906 77.589844 144.621094 75.429688 146.539062 73.3125 C 148.457031 71.195312 150.425781 69.128906 152.445312 67.109375 C 154.464844 65.089844 156.53125 63.121094 158.648438 61.203125 C 160.765625 59.285156 162.925781 57.421875 165.132812 55.609375 C 167.339844 53.796875 169.59375 52.039062 171.886719 50.339844 C 174.179688 48.636719 176.515625 46.992188 178.890625 45.40625 C 181.261719 43.820312 183.675781 42.292969 186.125 40.824219 C 188.574219 39.355469 191.058594 37.949219 193.578125 36.601562 C 196.097656 35.257812 198.648438 33.972656 201.226562 32.75 C 203.808594 31.53125 206.421875 30.375 209.058594 29.28125 C 211.699219 28.1875 214.359375 27.160156 217.050781 26.199219 C 219.738281 25.234375 222.449219 24.339844 225.183594 23.511719 C 227.917969 22.683594 230.667969 21.921875 233.4375 21.226562 C 236.207031 20.53125 238.996094 19.90625 241.796875 19.351562 C 244.597656 18.792969 247.410156 18.304688 250.234375 17.886719 C 253.058594 17.464844 255.894531 17.117188 258.734375 16.835938 C 261.578125 16.558594 264.425781 16.347656 267.277344 16.207031 C 270.128906 16.066406 272.984375 15.996094 275.839844 15.996094 Z M 275.839844 15.996094 " fill-opacity="1" fill-rule="nonzero"/></g><g fill="#ffffff" fill-opacity="1"><g transform="translate(177.077138, 560.588376)"><g><path d="M 457.835938 -38.335938 L 457.835938 -366.925781 C 457.835938 -384.449219 445.785156 -399.785156 428.808594 -404.164062 C 425.523438 -404.710938 422.785156 -405.261719 419.5 -405.261719 C 405.808594 -405.261719 392.664062 -397.59375 386.09375 -384.996094 L 242.609375 -119.386719 L 99.671875 -384.996094 C 92.550781 -397.59375 79.410156 -405.261719 65.71875 -405.261719 C 62.433594 -405.261719 59.695312 -404.710938 56.40625 -404.164062 C 39.429688 -399.785156 27.382812 -384.449219 27.382812 -366.925781 L 27.382812 -38.335938 C 27.382812 -16.976562 44.359375 0 65.71875 0 C 87.078125 0 104.054688 -16.976562 104.054688 -38.335938 L 104.054688 -214.679688 L 208.65625 -20.261719 C 215.773438 -7.667969 228.371094 0 242.609375 0 C 256.847656 0 269.445312 -7.667969 276.5625 -20.261719 L 381.164062 -214.679688 L 381.164062 -38.335938 C 381.164062 -16.976562 398.140625 0 419.5 0 C 440.859375 0 457.835938 -16.976562 457.835938 -38.335938 Z M 457.835938 -38.335938 "/></g></g></g><g clip-path="url(#ff7639f63a)"><g clip-path="url(#d505fb9a1d)"><path fill="#f2a954" d="M 667.289062 481.539062 L 745.542969 481.539062 L 745.542969 559.796875 L 667.289062 559.796875 Z M 667.289062 481.539062 " fill-opacity="1" fill-rule="nonzero"/></g></g></svg>